<svg xmlns="http://www.w3.org/2000/svg" width="256" height="81" viewBox="0 0 256 81" fill="none">
  <path d="M235.614 0.000261313H20.3978C19.6133 0.000261313 18.8382 0.000261313 18.0558 0.00428152C17.4008 0.00830172 16.7511 0.0199804 16.0898 0.0298098C14.6533 0.0456932 13.2202 0.164439 11.8029 0.385015C10.3875 0.610393 9.01654 1.03529 7.73626 1.64535C6.45754 2.26056 5.28914 3.05997 4.27345 4.01458C3.25242 4.96649 2.40131 6.06678 1.75285 7.27313C1.10261 8.47708 0.651724 9.76722 0.415777 11.099C0.177587 12.4291 0.0494149 13.7745 0.0324107 15.1232C0.0125578 15.7395 0.0104613 16.3579 0 16.9742V63.4362C0.0104613 64.0604 0.0125578 64.665 0.0324107 65.2894C0.0494201 66.638 0.177592 67.9834 0.415777 69.3134C0.651073 70.6459 1.10198 71.9368 1.75285 73.1412C2.40102 74.3437 3.25224 75.4395 4.27345 76.3861C5.28529 77.345 6.45445 78.1449 7.73626 78.7554C9.01653 79.3671 10.3874 79.7946 11.8029 80.0234C13.2204 80.2422 14.6534 80.361 16.0898 80.3788C16.7511 80.3925 17.4008 80.4003 18.0558 80.4003C18.8382 80.4043 19.6133 80.4043 20.3978 80.4043H235.614C236.383 80.4043 237.164 80.4043 237.933 80.4003C238.585 80.4003 239.253 80.3925 239.905 80.3788C241.339 80.362 242.769 80.2432 244.184 80.0234C245.604 79.7929 246.979 79.3656 248.266 78.7554C249.547 78.1446 250.715 77.3446 251.726 76.3861C252.744 75.4358 253.597 74.3408 254.253 73.1412C254.899 71.9359 255.346 70.6452 255.578 69.3134C255.816 67.9832 255.949 66.6381 255.975 65.2894C255.983 64.665 255.983 64.0604 255.983 63.4362C256 62.706 256 61.9797 256 61.2376V19.1688C256 18.4327 256 17.7025 255.983 16.9742C255.983 16.3579 255.983 15.7395 255.975 15.1231C255.949 13.7743 255.816 12.4292 255.578 11.0989C255.345 9.76791 254.899 8.47787 254.253 7.27305C252.933 4.85505 250.839 2.88682 248.266 1.64517C246.979 1.0366 245.604 0.611815 244.184 0.384834C242.769 0.163286 241.339 0.0444992 239.905 0.0295284C239.253 0.0197191 238.585 0.0079399 237.933 0.0040202C237.164 0 236.383 0 235.614 0V0.000261313Z" fill="#72C02C"/>
  <path d="M17.0875 78.5955C16.4357 78.5955 15.7996 78.5877 15.1529 78.574C13.8132 78.5576 12.4767 78.448 11.1542 78.2461C9.92109 78.0466 8.72652 77.6754 7.60992 77.1448C6.50355 76.6186 5.49445 75.9286 4.62128 75.1013C3.73548 74.2838 2.998 73.3356 2.43808 72.2942C1.872 71.2461 1.48023 70.1227 1.27643 68.9631C1.05635 67.7171 0.937274 66.4571 0.920236 65.1942C0.906672 64.7702 0.888916 63.3587 0.888916 63.3587V16.9242C0.888916 16.9242 0.907828 15.5344 0.920343 15.1261C0.936657 13.8652 1.05504 12.6072 1.27446 11.3631C1.47864 10.2003 1.87071 9.07361 2.4371 8.02209C2.99496 6.98149 3.72834 6.03255 4.60881 5.21207C5.48829 4.38379 6.50062 3.69027 7.60887 3.1568C8.72291 2.62791 9.91522 2.25934 11.1459 2.06343C12.4727 1.85953 13.8138 1.7493 15.1582 1.73365L17.0885 1.70911H236.944L238.897 1.73463C240.229 1.74951 241.558 1.85876 242.873 2.06146C244.116 2.25982 245.321 2.63097 246.447 3.16269C248.668 4.23779 250.474 5.93869 251.614 8.027C252.171 9.07126 252.557 10.1887 252.759 11.3415C252.981 12.5958 253.105 13.8637 253.131 15.135C253.137 15.7042 253.137 16.3157 253.137 16.9242C253.154 17.678 253.154 18.3955 253.154 19.1189V61.1876C253.154 61.9179 253.154 62.6305 253.137 63.3489C253.137 64.0026 253.137 64.6014 253.128 65.2177C253.103 66.4663 252.981 67.7115 252.763 68.9434C252.563 70.1114 252.174 71.2436 251.608 72.3003C251.044 73.3303 250.31 74.2703 249.435 75.0857C248.561 75.9174 247.55 76.6114 246.441 77.141C245.317 77.6757 244.114 78.0482 242.873 78.2461C241.55 78.4491 240.214 78.5587 238.874 78.574C238.247 78.5877 237.591 78.5955 236.954 78.5955L234.635 78.5995L17.0875 78.5955Z" fill="white"/>
  <path d="M52.9892 40.807C53.0122 39.1293 53.4865 37.4843 54.368 36.025C55.2494 34.5658 56.5094 33.3397 58.0307 32.461C57.0643 31.1641 55.7893 30.0969 54.3072 29.344C52.825 28.5911 51.1764 28.1733 49.4923 28.1238C45.8999 27.7695 42.4171 30.1436 40.5865 30.1436C38.7204 30.1436 35.9019 28.159 32.8668 28.2177C30.9036 28.2773 28.9903 28.8137 27.3133 29.7746C25.6363 30.7356 24.2529 32.0883 23.2977 33.701C19.1603 40.4316 22.2465 50.3234 26.2098 55.764C28.1927 58.4281 30.5102 61.4039 33.5426 61.2984C36.51 61.1828 37.6182 59.5205 41.2001 59.5205C44.7487 59.5205 45.7885 61.2984 48.8824 61.2313C52.0665 61.1827 54.0727 58.5554 55.986 55.8661C57.4108 53.9678 58.5071 51.8698 59.2344 49.6498C57.3845 48.9147 55.8059 47.6841 54.6953 46.1116C53.5847 44.5391 52.9914 42.6943 52.9892 40.807Z" fill="black"/>
  <path d="M47.1451 24.5457C48.8813 22.5874 49.7366 20.0704 49.5295 17.5292C46.8771 17.7909 44.427 18.982 42.6674 20.8652C41.8071 21.7851 41.1482 22.8554 40.7284 24.0147C40.3085 25.1741 40.136 26.3998 40.2206 27.6219C41.5473 27.6347 42.8598 27.3645 44.0592 26.8317C45.2587 26.2988 46.3138 25.5172 47.1451 24.5457Z" fill="black"/>
  <path d="M90.4983 54.554H80.372L77.9402 61.3008H73.6511L83.2426 36.3394H87.6988L97.2902 61.3008H92.928L90.4983 54.554ZM81.4208 51.4407H89.4475L85.4906 40.4911H85.3799L81.4208 51.4407Z" fill="black"/>
  <path d="M118.004 52.2024C118.004 57.8578 114.783 61.4913 109.921 61.4913C108.69 61.5518 107.465 61.2853 106.387 60.7221C105.31 60.159 104.422 59.3221 103.827 58.3073H103.735V67.3213H99.7595V43.102H103.608V46.1289H103.681C104.303 45.1189 105.206 44.2863 106.292 43.7198C107.378 43.1533 108.607 42.8739 109.848 42.9116C114.764 42.9116 118.004 46.5627 118.004 52.2024ZM113.918 52.2024C113.918 48.5179 111.891 46.0955 108.799 46.0955C105.762 46.0955 103.719 48.5689 103.719 52.2024C103.719 55.8693 105.762 58.325 108.799 58.325C111.891 58.325 113.918 55.9203 113.918 52.2024Z" fill="black"/>
  <path d="M139.323 52.2024C139.323 57.8578 136.101 61.4913 131.239 61.4913C130.008 61.5518 128.783 61.2852 127.705 60.7221C126.628 60.159 125.74 59.3221 125.145 58.3073H125.053V67.3213H121.078V43.102H124.926V46.1289H124.999C125.621 45.1189 126.524 44.2863 127.61 43.7198C128.696 43.1533 129.925 42.8739 131.166 42.9116C136.082 42.9116 139.323 46.5627 139.323 52.2024ZM135.236 52.2024C135.236 48.5179 133.21 46.0955 130.118 46.0955C127.08 46.0955 125.037 48.5689 125.037 52.2024C125.037 55.8693 127.08 58.325 130.118 58.325C133.21 58.325 135.236 55.9203 135.236 52.2024H135.236Z" fill="black"/>
  <path d="M153.412 54.3459C153.707 56.8212 156.266 58.4465 159.763 58.4465C163.114 58.4465 165.525 56.8211 165.525 54.5892C165.525 52.6517 164.071 51.4916 160.628 50.6966L157.185 49.9173C152.307 48.8101 150.042 46.6665 150.042 43.1881C150.042 38.8813 154.037 35.9231 159.709 35.9231C165.322 35.9231 169.171 38.8813 169.3 43.1881H165.287C165.047 40.6971 162.855 39.1934 159.652 39.1934C156.45 39.1934 154.258 40.7148 154.258 42.929C154.258 44.6938 155.658 45.7322 159.082 46.5271L162.009 47.2024C167.46 48.4135 169.724 50.4708 169.724 54.1219C169.724 58.7919 165.765 61.7167 159.469 61.7167C153.577 61.7167 149.599 58.8606 149.342 54.3457L153.412 54.3459Z" fill="black"/>
  <path d="M178.305 38.795V43.1018H181.988V46.0601H178.305V56.0929C178.305 57.6515 179.042 58.3778 180.661 58.3778C181.099 58.3707 181.535 58.3418 181.969 58.2914V61.232C181.241 61.3598 180.501 61.4176 179.761 61.4047C175.84 61.4047 174.31 60.0208 174.31 56.4913V46.0601H171.494V43.1018H174.31V38.795H178.305Z" fill="black"/>
  <path d="M184.121 52.2024C184.121 46.4763 187.71 42.8782 193.307 42.8782C198.923 42.8782 202.495 46.4763 202.495 52.2024C202.495 57.9441 198.942 61.5266 193.307 61.5266C187.674 61.5266 184.121 57.9441 184.121 52.2024ZM198.444 52.2024C198.444 48.2744 196.528 45.9561 193.307 45.9561C190.085 45.9561 188.172 48.2921 188.172 52.2024C188.172 56.146 190.085 58.4467 193.307 58.4467C196.528 58.4467 198.444 56.146 198.444 52.2024H198.444Z" fill="black"/>
  <path d="M205.773 43.1018H209.565V46.1994H209.657C209.913 45.2319 210.517 44.377 211.365 43.7782C212.213 43.1794 213.255 42.8733 214.316 42.9114C214.774 42.9099 215.231 42.9566 215.678 43.0507V46.5449C215.099 46.3788 214.496 46.3026 213.892 46.3191C213.314 46.2971 212.738 46.3928 212.204 46.5996C211.669 46.8064 211.189 47.1195 210.795 47.5172C210.401 47.915 210.104 48.3881 209.924 48.9041C209.743 49.42 209.683 49.9665 209.749 50.5062V61.3007H205.773L205.773 43.1018Z" fill="black"/>
  <path d="M234.008 55.9555C233.474 59.2592 230.049 61.5265 225.668 61.5265C220.034 61.5265 216.537 57.9793 216.537 52.2886C216.537 46.5803 220.053 42.8781 225.501 42.8781C230.86 42.8781 234.23 46.3368 234.23 51.8548V53.1347H220.55V53.3604C220.487 54.0302 220.576 54.7049 220.812 55.3398C221.047 55.9746 221.424 56.5551 221.917 57.0427C222.41 57.5302 223.007 57.9137 223.67 58.1676C224.333 58.4214 225.045 58.54 225.76 58.5152C226.7 58.5979 227.643 58.3935 228.449 57.9323C229.255 57.4711 229.88 56.7778 230.233 55.9555L234.008 55.9555ZM220.569 50.5239H230.252C230.288 49.9217 230.191 49.319 229.967 48.7538C229.743 48.1885 229.397 47.6728 228.951 47.2391C228.505 46.8054 227.968 46.463 227.374 46.2334C226.781 46.0039 226.143 45.892 225.501 45.905C224.854 45.9014 224.212 46.0182 223.613 46.2489C223.014 46.4795 222.469 46.8194 222.011 47.2488C221.552 47.6782 221.189 48.1887 220.941 48.7508C220.694 49.313 220.567 49.9156 220.569 50.5239V50.5239Z" fill="black"/>
  <path d="M80.9221 17.5507C81.7556 17.4945 82.592 17.6128 83.371 17.8971C84.1499 18.1814 84.852 18.6246 85.4266 19.1947C86.0012 19.7648 86.4339 20.4477 86.6937 21.194C86.9534 21.9403 87.0336 22.7314 86.9285 23.5103C86.9285 27.3421 84.7244 29.5447 80.9221 29.5447H76.3113V17.5507H80.9221ZM78.2939 27.8485H80.7006C81.2962 27.8819 81.8923 27.7902 82.4454 27.5799C82.9985 27.3696 83.4947 27.0461 83.898 26.6329C84.3012 26.2197 84.6013 25.7272 84.7764 25.1912C84.9516 24.6553 84.9973 24.0894 84.9103 23.5348C84.991 22.9823 84.9406 22.42 84.7628 21.888C84.585 21.356 84.2841 20.8675 83.8818 20.4576C83.4795 20.0477 82.9856 19.7264 82.4357 19.5169C81.8857 19.3074 81.2932 19.2148 80.7006 19.2457H78.2939V27.8485Z" fill="black"/>
  <path d="M89.1682 25.0148C89.1077 24.42 89.1801 23.8199 89.3808 23.2529C89.5816 22.6859 89.9062 22.1646 90.334 21.7224C90.7617 21.2802 91.2831 20.9269 91.8647 20.6851C92.4463 20.4434 93.0752 20.3185 93.7111 20.3185C94.3471 20.3185 94.976 20.4434 95.5576 20.6851C96.1392 20.9269 96.6606 21.2802 97.0883 21.7224C97.516 22.1646 97.8407 22.6859 98.0415 23.2529C98.2422 23.8199 98.3146 24.42 98.2541 25.0148C98.3158 25.6103 98.2442 26.2113 98.044 26.7792C97.8438 27.3471 97.5193 27.8693 97.0915 28.3124C96.6636 28.7554 96.1418 29.1095 95.5597 29.3518C94.9775 29.5941 94.3479 29.7192 93.7111 29.7192C93.0744 29.7192 92.4448 29.5941 91.8626 29.3518C91.2804 29.1095 90.7587 28.7554 90.3308 28.3124C89.903 27.8693 89.5785 27.3471 89.3783 26.7792C89.1781 26.2113 89.1065 25.6103 89.1682 25.0148ZM96.2986 25.0148C96.2986 23.0528 95.3605 21.9055 93.7143 21.9055C92.0617 21.9055 91.1321 23.0528 91.1321 25.0149C91.1321 26.9926 92.0618 28.1311 93.7143 28.1311C95.3606 28.1311 96.2986 26.9847 96.2986 25.0148H96.2986Z" fill="black"/>
  <path d="M110.331 29.5445H108.359L106.368 22.8782H106.218L104.235 29.5445H102.282L99.6262 20.4932H101.555L103.28 27.3999H103.422L105.403 20.4932H107.227L109.207 27.3999H109.358L111.075 20.4932H112.976L110.331 29.5445Z" fill="black"/>
  <path d="M115.21 20.4931H117.04V21.931H117.182C117.423 21.4145 117.83 20.9816 118.345 20.6925C118.86 20.4035 119.459 20.2727 120.057 20.3184C120.526 20.2852 120.996 20.3517 121.434 20.5127C121.872 20.6737 122.265 20.9251 122.585 21.2484C122.906 21.5717 123.144 21.9586 123.284 22.3804C123.423 22.8021 123.46 23.248 123.391 23.6849V29.5443H121.49V24.1335C121.49 22.6789 120.817 21.9555 119.411 21.9555C119.093 21.9416 118.775 21.9925 118.48 22.1047C118.185 22.2169 117.919 22.3878 117.7 22.6057C117.482 22.8236 117.316 23.0832 117.214 23.3669C117.113 23.6506 117.077 23.9516 117.111 24.2493V29.5444H115.21L115.21 20.4931Z" fill="black"/>
  <path d="M126.421 16.9597H128.322V29.5444H126.421V16.9597Z" fill="black"/>
  <path d="M130.964 25.0149C130.903 24.42 130.976 23.8198 131.177 23.2528C131.377 22.6858 131.702 22.1645 132.13 21.7223C132.558 21.2801 133.079 20.9268 133.661 20.685C134.242 20.4432 134.871 20.3184 135.507 20.3184C136.143 20.3184 136.772 20.4432 137.354 20.685C137.935 20.9268 138.457 21.2801 138.885 21.7223C139.312 22.1645 139.637 22.6858 139.838 23.2528C140.039 23.8198 140.111 24.42 140.051 25.0149C140.112 25.6103 140.041 26.2113 139.84 26.7792C139.64 27.3471 139.316 27.8694 138.888 28.3124C138.46 28.7555 137.938 29.1095 137.356 29.3518C136.774 29.5941 136.144 29.7192 135.507 29.7192C134.871 29.7192 134.241 29.5941 133.659 29.3518C133.076 29.1095 132.555 28.7555 132.127 28.3124C131.699 27.8694 131.374 27.3471 131.174 26.7792C130.974 26.2113 130.902 25.6103 130.964 25.0149ZM138.094 25.0149C138.094 23.0529 137.156 21.9055 135.51 21.9055C133.857 21.9055 132.928 23.0529 132.928 25.0149C132.928 26.9926 133.857 28.1311 135.51 28.1311C137.156 28.1311 138.094 26.9847 138.094 25.0149H138.094Z" fill="black"/>
  <path d="M142.053 26.9847C142.053 25.3554 143.344 24.4161 145.636 24.2826L148.245 24.1413V23.36C148.245 22.404 147.572 21.8642 146.273 21.8642C145.212 21.8642 144.476 22.2303 144.265 22.8702H142.425C142.619 21.3156 144.175 20.3184 146.361 20.3184C148.776 20.3184 150.138 21.448 150.138 23.36V29.5444H148.308V28.2724H148.157C147.852 28.7287 147.423 29.1006 146.915 29.3503C146.407 29.6 145.837 29.7184 145.264 29.6935C144.859 29.7331 144.451 29.6925 144.064 29.5745C143.677 29.4565 143.321 29.2637 143.019 29.0085C142.716 28.7533 142.474 28.4413 142.307 28.0927C142.141 27.7442 142.054 27.3667 142.053 26.9847ZM148.245 26.2112V25.4545L145.893 25.5958C144.566 25.6793 143.964 26.1033 143.964 26.9012C143.964 27.7159 144.716 28.1899 145.751 28.1899C146.054 28.2187 146.36 28.19 146.651 28.1054C146.942 28.0208 147.212 27.882 147.444 27.6974C147.677 27.5128 147.868 27.2861 148.005 27.0308C148.143 26.7755 148.224 26.4968 148.245 26.2112Z" fill="black"/>
  <path d="M152.637 25.0149C152.637 22.1548 154.202 20.343 156.635 20.343C157.237 20.3169 157.835 20.4524 158.358 20.7336C158.881 21.0148 159.308 21.4301 159.59 21.9309H159.732V16.9597H161.633V29.5444H159.811V28.1144H159.661C159.358 28.6119 158.916 29.022 158.382 29.3004C157.849 29.5787 157.245 29.7147 156.635 29.6936C154.185 29.6937 152.637 27.8818 152.637 25.0149ZM154.601 25.0149C154.601 26.9347 155.564 28.0899 157.175 28.0899C158.777 28.0899 159.767 26.918 159.767 25.0227C159.767 23.1363 158.766 21.9477 157.175 21.9477C155.574 21.9477 154.601 23.1108 154.601 25.0149H154.601Z" fill="black"/>
  <path d="M169.499 25.0148C169.438 24.42 169.51 23.8199 169.711 23.2529C169.912 22.6859 170.237 22.1646 170.664 21.7224C171.092 21.2802 171.613 20.9269 172.195 20.6851C172.777 20.4434 173.406 20.3185 174.041 20.3185C174.677 20.3185 175.306 20.4434 175.888 20.6851C176.47 20.9269 176.991 21.2802 177.419 21.7224C177.846 22.1646 178.171 22.6859 178.372 23.2529C178.573 23.8199 178.645 24.42 178.584 25.0148C178.646 25.6103 178.575 26.2113 178.374 26.7792C178.174 27.3471 177.85 27.8693 177.422 28.3124C176.994 28.7554 176.472 29.1095 175.89 29.3518C175.308 29.5941 174.678 29.7192 174.041 29.7192C173.405 29.7192 172.775 29.5941 172.193 29.3518C171.611 29.1095 171.089 28.7554 170.661 28.3124C170.233 27.8693 169.909 27.3471 169.709 26.7792C169.508 26.2113 169.437 25.6103 169.499 25.0148ZM176.629 25.0148C176.629 23.0528 175.691 21.9055 174.045 21.9055C172.392 21.9055 171.462 23.0528 171.462 25.0149C171.462 26.9926 172.392 28.1311 174.045 28.1311C175.691 28.1311 176.629 26.9847 176.629 25.0148Z" fill="black"/>
  <path d="M181.135 20.4931H182.965V21.931H183.107C183.348 21.4145 183.754 20.9816 184.27 20.6925C184.785 20.4035 185.384 20.2727 185.982 20.3184C186.45 20.2852 186.921 20.3517 187.359 20.5127C187.796 20.6737 188.19 20.9251 188.51 21.2484C188.83 21.5717 189.069 21.9586 189.209 22.3804C189.348 22.8021 189.385 23.248 189.316 23.6849V29.5443H187.415V24.1335C187.415 22.6789 186.742 21.9555 185.336 21.9555C185.018 21.9416 184.7 21.9925 184.405 22.1047C184.109 22.2169 183.843 22.3878 183.625 22.6057C183.407 22.8236 183.241 23.0832 183.139 23.3669C183.037 23.6506 183.002 23.9516 183.036 24.2493V29.5444H181.135V20.4931Z" fill="black"/>
  <path d="M200.059 18.2395V20.5342H202.146V22.0389H200.059V26.6931C200.059 27.6413 200.474 28.0564 201.421 28.0564C201.663 28.0557 201.905 28.0419 202.146 28.0152V29.5031C201.804 29.5605 201.459 29.591 201.112 29.5944C198.997 29.5944 198.156 28.8956 198.156 27.1505V22.0388H196.626V20.5342H198.156V18.2395H200.059Z" fill="black"/>
  <path d="M204.742 16.9597H206.627V21.9477H206.777C207.03 21.4264 207.448 20.9911 207.973 20.7009C208.499 20.4107 209.107 20.2799 209.715 20.3263C210.181 20.3024 210.647 20.3756 211.08 20.5405C211.512 20.7054 211.901 20.958 212.218 21.2803C212.535 21.6026 212.772 21.9866 212.913 22.405C213.054 22.8234 213.094 23.2658 213.032 23.7006V29.5445H211.129V24.1413C211.129 22.6956 210.412 21.9634 209.069 21.9634C208.742 21.9382 208.414 21.9804 208.106 22.087C207.799 22.1937 207.52 22.3622 207.289 22.5808C207.057 22.7993 206.88 23.0627 206.769 23.3524C206.657 23.6422 206.615 23.9513 206.644 24.2581V29.5444H204.743L204.742 16.9597Z" fill="black"/>
  <path d="M224.118 27.1006C223.859 27.9279 223.3 28.6434 222.537 29.1221C221.774 29.6008 220.856 29.8122 219.943 29.7193C219.309 29.735 218.678 29.6208 218.095 29.3845C217.512 29.1483 216.991 28.7957 216.567 28.3512C216.144 27.9067 215.829 27.3809 215.643 26.8104C215.458 26.2399 215.407 25.6383 215.493 25.0474C215.409 24.4546 215.461 23.8517 215.646 23.2795C215.831 22.7073 216.145 22.1791 216.566 21.7307C216.987 21.2823 217.506 20.9241 218.087 20.6805C218.668 20.4369 219.299 20.3134 219.935 20.3185C222.615 20.3185 224.233 22.0392 224.233 24.8814V25.5048H217.43V25.6049C217.4 25.937 217.445 26.2714 217.561 26.5864C217.676 26.9015 217.861 27.1904 218.103 27.4345C218.344 27.6787 218.637 27.8727 218.963 28.0041C219.289 28.1356 219.641 28.2016 219.996 28.1979C220.45 28.2492 220.911 28.1722 221.319 27.9769C221.727 27.7815 222.064 27.4764 222.287 27.1006L224.118 27.1006ZM217.43 24.1836H222.296C222.32 23.8799 222.276 23.5747 222.167 23.2878C222.058 23.001 221.886 22.7387 221.663 22.5179C221.439 22.297 221.169 22.1226 220.87 22.0056C220.571 21.8887 220.249 21.8319 219.925 21.8389C219.596 21.835 219.269 21.893 218.965 22.0095C218.66 22.1259 218.384 22.2985 218.151 22.517C217.919 22.7356 217.735 22.9956 217.611 23.2818C217.487 23.5681 217.426 23.8747 217.43 24.1836H217.43Z" fill="black"/>
</svg>