<svg xmlns="http://www.w3.org/2000/svg" width="256" height="81" viewBox="0 0 256 81" fill="none">
  <path d="M235.614 0.000383384H20.3978C19.6133 0.000383384 18.8382 0.000383384 18.0558 0.00440359C17.4008 0.00842379 16.7511 0.0201025 16.0898 0.0299319C14.6533 0.0458153 13.2202 0.164561 11.8029 0.385137C10.3875 0.610515 9.01654 1.03542 7.73626 1.64547C6.45754 2.26069 5.28914 3.06009 4.27345 4.0147C3.25242 4.96661 2.40131 6.0669 1.75285 7.27325C1.10261 8.4772 0.651724 9.76734 0.415777 11.0991C0.177587 12.4292 0.0494149 13.7746 0.0324107 15.1233C0.0125578 15.7396 0.0104613 16.358 0 16.9744V63.4364C0.0104613 64.0605 0.0125578 64.6651 0.0324107 65.2895C0.0494201 66.6381 0.177592 67.9835 0.415777 69.3135C0.651073 70.6461 1.10198 71.9369 1.75285 73.1413C2.40102 74.3438 3.25224 75.4396 4.27345 76.3863C5.28529 77.3451 6.45445 78.1451 7.73626 78.7556C9.01653 79.3672 10.3874 79.7947 11.8029 80.0235C13.2204 80.2423 14.6534 80.3611 16.0898 80.3789C16.7511 80.3926 17.4008 80.4004 18.0558 80.4004C18.8382 80.4044 19.6133 80.4044 20.3978 80.4044H235.614C236.383 80.4044 237.164 80.4044 237.933 80.4004C238.585 80.4004 239.253 80.3926 239.905 80.3789C241.339 80.3621 242.769 80.2433 244.184 80.0235C245.604 79.7931 246.979 79.3657 248.266 78.7556C249.547 78.1447 250.715 77.3448 251.726 76.3863C252.744 75.4359 253.597 74.3409 254.253 73.1413C254.899 71.9361 255.346 70.6453 255.578 69.3135C255.816 67.9833 255.949 66.6382 255.975 65.2895C255.983 64.6651 255.983 64.0605 255.983 63.4364C256 62.7061 256 61.9799 256 61.2377V19.169C256 18.4329 256 17.7026 255.983 16.9744C255.983 16.358 255.983 15.7396 255.975 15.1233C255.949 13.7744 255.816 12.4293 255.578 11.099C255.345 9.76803 254.899 8.47799 254.253 7.27317C252.933 4.85517 250.839 2.88694 248.266 1.64529C246.979 1.03673 245.604 0.611938 244.184 0.384956C242.769 0.163408 241.339 0.0446212 239.905 0.0296505C239.253 0.0198412 238.585 0.00806197 237.933 0.00414227C237.164 0.00012207 236.383 0.00012207 235.614 0.00012207V0.000383384Z" fill="#72C02C"/>
  <path d="M18.066 78.6457C17.4142 78.6457 16.7781 78.6378 16.1314 78.6242C14.7917 78.6078 13.4552 78.4982 12.1327 78.2963C10.8996 78.0968 9.70504 77.7256 8.58843 77.195C7.48207 76.6688 6.47297 75.9788 5.5998 75.1515C4.71399 74.334 3.97652 73.3857 3.4166 72.3444C2.85051 71.2963 2.45875 70.1729 2.25495 69.0133C2.03486 67.7672 1.91579 66.5073 1.89875 65.2443C1.88519 64.8204 1.86743 63.4089 1.86743 63.4089V16.9744C1.86743 16.9744 1.88634 15.5846 1.89886 15.1763C1.91517 13.9153 2.03355 12.6574 2.25298 11.4133C2.45715 10.2505 2.84922 9.12379 3.41562 8.07226C3.97348 7.03166 4.70686 6.08273 5.58733 5.26224C6.46681 4.43396 7.47913 3.74044 8.58739 3.20697C9.70143 2.67808 10.8937 2.30951 12.1244 2.1136C13.4512 1.90971 14.7924 1.79947 16.1367 1.78382L18.067 1.75928H237.922L239.876 1.78481C241.208 1.79968 242.537 1.90893 243.851 2.11163C245.094 2.31 246.299 2.68114 247.426 3.21286C249.646 4.28796 251.453 5.98886 252.592 8.07717C253.15 9.12143 253.536 10.2389 253.737 11.3917C253.959 12.646 254.084 13.9138 254.109 15.1851C254.115 15.7544 254.115 16.3659 254.115 16.9744C254.132 17.7282 254.132 18.4457 254.132 19.169V61.2378C254.132 61.9681 254.132 62.6806 254.115 63.3991C254.115 64.0527 254.115 64.6515 254.107 65.2678C254.082 66.5165 253.96 67.7617 253.741 68.9936C253.542 70.1616 253.152 71.2937 252.586 72.3504C252.022 73.3804 251.289 74.3205 250.413 75.1358C249.539 75.9676 248.529 76.6616 247.42 77.1912C246.296 77.7258 245.093 78.0984 243.851 78.2963C242.529 78.4993 241.192 78.6088 239.852 78.6242C239.226 78.6378 238.57 78.6457 237.933 78.6457L235.614 78.6497L18.066 78.6457Z" fill="white"/>
  <path d="M123.26 47.7702C119.137 47.7702 115.769 50.6447 115.769 54.6106C115.769 58.5444 119.137 61.449 123.26 61.449C127.392 61.449 130.76 58.5444 130.76 54.6106C130.76 50.6447 127.392 47.7702 123.26 47.7702ZM123.26 58.7554C120.998 58.7554 119.052 57.0449 119.052 54.6106C119.052 52.1442 120.998 50.4638 123.26 50.4638C125.522 50.4638 127.477 52.1442 127.477 54.6106C127.477 57.0449 125.522 58.7554 123.26 58.7554ZM106.916 47.7702C102.784 47.7702 99.4248 50.6447 99.4248 54.6106C99.4248 58.5444 102.784 61.449 106.916 61.449C111.045 61.449 114.407 58.5444 114.407 54.6106C114.407 50.6447 111.045 47.7702 106.916 47.7702ZM106.916 58.7554C104.651 58.7554 102.699 57.0449 102.699 54.6106C102.699 52.1442 104.651 50.4638 106.916 50.4638C109.178 50.4638 111.124 52.1442 111.124 54.6106C111.124 57.0449 109.178 58.7554 106.916 58.7554ZM87.4666 49.8668V52.7734H95.0431C94.8215 54.3975 94.229 55.5916 93.3206 56.4237C92.2148 57.4288 90.4923 58.5444 87.4666 58.5444C82.804 58.5444 79.1528 55.0971 79.1528 50.8256C79.1528 46.5541 82.804 43.1068 87.4666 43.1068C89.9877 43.1068 91.822 44.0093 93.1758 45.1792L95.4117 43.1309C93.5181 41.4746 90.9992 40.2022 87.4666 40.2022C81.0728 40.2022 75.6992 44.9682 75.6992 50.8256C75.6992 56.683 81.0728 61.449 87.4666 61.449C90.9224 61.449 93.5181 60.4118 95.5587 58.466C97.6498 56.5504 98.3014 53.8568 98.3014 51.6819C98.3014 51.0065 98.24 50.3854 98.1303 49.8668H87.4666ZM166.997 52.1201C166.38 50.5904 164.478 47.7702 160.603 47.7702C156.763 47.7702 153.566 50.5422 153.566 54.6106C153.566 58.4419 156.73 61.449 160.971 61.449C164.401 61.449 166.38 59.5334 167.194 58.4178L164.649 56.8639C163.8 58.0017 162.643 58.7554 160.971 58.7554C159.31 58.7554 158.119 58.0579 157.355 56.683L167.341 52.898L166.997 52.1201ZM156.816 54.3975C156.73 51.7603 159.052 50.4095 160.715 50.4095C162.018 50.4095 163.124 51.0065 163.493 51.8608L156.816 54.3975ZM148.699 61.0329H151.982V40.9319H148.699V61.0329ZM143.324 49.2939H143.214C142.477 48.4939 141.07 47.7702 139.289 47.7702C135.55 47.7702 132.131 50.7774 132.131 54.6327C132.131 58.466 135.55 61.449 139.289 61.449C141.07 61.449 142.477 60.7193 143.214 59.8952H143.324V60.8761C143.324 63.4912 141.799 64.8963 139.339 64.8963C137.334 64.8963 136.09 63.5696 135.576 62.454L132.721 63.5455C133.544 65.3586 135.723 67.5898 139.339 67.5898C143.188 67.5898 146.435 65.5154 146.435 60.4681V48.1863H143.324V49.2939ZM139.569 58.7554C137.307 58.7554 135.414 57.0207 135.414 54.6327C135.414 52.2226 137.307 50.4638 139.569 50.4638C141.799 50.4638 143.556 52.2226 143.556 54.6327C143.556 57.0207 141.799 58.7554 139.569 58.7554ZM182.365 40.9319H174.514V61.0329H177.788V53.4166H182.365C186 53.4166 189.566 51.0065 189.566 47.1732C189.566 43.342 185.992 40.9319 182.365 40.9319ZM182.45 50.6206H177.788V43.7279H182.45C184.895 43.7279 186.29 45.5873 186.29 47.1732C186.29 48.7291 184.895 50.6206 182.45 50.6206ZM202.687 47.7321C200.322 47.7321 197.862 48.6889 196.851 50.8095L199.756 51.9251C200.381 50.8095 201.531 50.4477 202.746 50.4477C204.445 50.4477 206.167 51.3824 206.193 53.0327V53.2438C205.601 52.9302 204.333 52.4658 202.773 52.4658C199.644 52.4658 196.456 54.0438 196.456 56.9886C196.456 59.6821 199.018 61.4168 201.899 61.4168C204.102 61.4168 205.318 60.5062 206.082 59.4469H206.193V61.0007H209.355V53.29C209.355 49.7261 206.45 47.7321 202.687 47.7321ZM202.292 58.7474C201.221 58.7474 199.729 58.261 199.729 57.0449C199.729 55.489 201.59 54.892 203.201 54.892C204.642 54.892 205.318 55.1835 206.193 55.5674C205.937 57.4288 204.188 58.7474 202.292 58.7474ZM220.875 48.1723L217.112 56.8861H217L213.109 48.1723H209.579L215.424 60.3495L212.089 67.1255H215.51L224.517 48.1723H220.875ZM191.365 61.0329H194.648V40.9319H191.365V61.0329Z" fill="black"/>
  <path d="M80.9221 17.5506C81.7556 17.4944 82.592 17.6127 83.371 17.897C84.1499 18.1813 84.852 18.6245 85.4266 19.1946C86.0012 19.7647 86.4339 20.4475 86.6937 21.1938C86.9534 21.9401 87.0336 22.7313 86.9285 23.5102C86.9285 27.342 84.7244 29.5446 80.9221 29.5446H76.3113V17.5506H80.9221ZM78.2939 27.8483H80.7006C81.2962 27.8818 81.8923 27.79 82.4454 27.5798C82.9985 27.3695 83.4947 27.0459 83.898 26.6327C84.3012 26.2195 84.6013 25.727 84.7764 25.1911C84.9516 24.6552 84.9973 24.0893 84.9103 23.5347C84.991 22.9822 84.9406 22.4199 84.7628 21.8879C84.585 21.3559 84.2841 20.8674 83.8818 20.4575C83.4795 20.0476 82.9856 19.7263 82.4357 19.5168C81.8857 19.3073 81.2932 19.2146 80.7006 19.2455H78.2939V27.8483Z" fill="black"/>
  <path d="M89.1682 25.0148C89.1077 24.42 89.1801 23.8199 89.3808 23.2529C89.5816 22.6859 89.9062 22.1646 90.334 21.7224C90.7617 21.2802 91.2831 20.9269 91.8647 20.6851C92.4463 20.4434 93.0752 20.3185 93.7111 20.3185C94.3471 20.3185 94.976 20.4434 95.5576 20.6851C96.1392 20.9269 96.6606 21.2802 97.0883 21.7224C97.516 22.1646 97.8407 22.6859 98.0415 23.2529C98.2422 23.8199 98.3146 24.42 98.2541 25.0148C98.3158 25.6103 98.2442 26.2113 98.044 26.7792C97.8438 27.3471 97.5193 27.8693 97.0915 28.3124C96.6636 28.7554 96.1418 29.1095 95.5597 29.3518C94.9775 29.5941 94.3479 29.7192 93.7111 29.7192C93.0744 29.7192 92.4448 29.5941 91.8626 29.3518C91.2804 29.1095 90.7587 28.7554 90.3308 28.3124C89.903 27.8693 89.5785 27.3471 89.3783 26.7792C89.1781 26.2113 89.1065 25.6103 89.1682 25.0148ZM96.2986 25.0148C96.2986 23.0528 95.3605 21.9055 93.7143 21.9055C92.0617 21.9055 91.1321 23.0528 91.1321 25.0149C91.1321 26.9926 92.0618 28.1311 93.7143 28.1311C95.3606 28.1311 96.2986 26.9847 96.2986 25.0148H96.2986Z" fill="black"/>
  <path d="M110.331 29.5445H108.359L106.368 22.8782H106.218L104.235 29.5445H102.282L99.6262 20.4932H101.555L103.28 27.3999H103.422L105.403 20.4932H107.227L109.207 27.3999H109.358L111.075 20.4932H112.976L110.331 29.5445Z" fill="black"/>
  <path d="M115.21 20.4931H117.04V21.931H117.182C117.423 21.4145 117.83 20.9816 118.345 20.6925C118.86 20.4035 119.459 20.2727 120.057 20.3184C120.526 20.2852 120.996 20.3517 121.434 20.5127C121.872 20.6737 122.265 20.9251 122.585 21.2484C122.906 21.5717 123.144 21.9586 123.284 22.3804C123.423 22.8021 123.46 23.248 123.391 23.6849V29.5443H121.49V24.1335C121.49 22.6789 120.817 21.9555 119.411 21.9555C119.093 21.9416 118.775 21.9925 118.48 22.1047C118.185 22.2169 117.919 22.3878 117.7 22.6057C117.482 22.8236 117.316 23.0832 117.214 23.3669C117.113 23.6506 117.077 23.9516 117.111 24.2493V29.5444H115.21L115.21 20.4931Z" fill="black"/>
  <path d="M126.421 16.9596H128.322V29.5443H126.421V16.9596Z" fill="black"/>
  <path d="M130.964 25.0148C130.903 24.4199 130.976 23.8197 131.177 23.2527C131.377 22.6857 131.702 22.1644 132.13 21.7222C132.558 21.28 133.079 20.9267 133.661 20.6849C134.242 20.4431 134.871 20.3182 135.507 20.3182C136.143 20.3182 136.772 20.4431 137.354 20.6849C137.935 20.9267 138.457 21.28 138.885 21.7222C139.312 22.1644 139.637 22.6857 139.838 23.2527C140.039 23.8197 140.111 24.4199 140.051 25.0148C140.112 25.6102 140.041 26.2112 139.84 26.7791C139.64 27.347 139.316 27.8693 138.888 28.3123C138.46 28.7554 137.938 29.1094 137.356 29.3517C136.774 29.5939 136.144 29.7191 135.507 29.7191C134.871 29.7191 134.241 29.5939 133.659 29.3517C133.076 29.1094 132.555 28.7554 132.127 28.3123C131.699 27.8693 131.374 27.347 131.174 26.7791C130.974 26.2112 130.902 25.6102 130.964 25.0148ZM138.094 25.0148C138.094 23.0528 137.156 21.9054 135.51 21.9054C133.857 21.9054 132.928 23.0528 132.928 25.0148C132.928 26.9925 133.857 28.131 135.51 28.131C137.156 28.131 138.094 26.9846 138.094 25.0148Z" fill="black"/>
  <path d="M142.053 26.9847C142.053 25.3554 143.344 24.4161 145.636 24.2826L148.245 24.1413V23.36C148.245 22.404 147.572 21.8642 146.273 21.8642C145.212 21.8642 144.476 22.2303 144.265 22.8702H142.425C142.619 21.3156 144.175 20.3184 146.361 20.3184C148.776 20.3184 150.138 21.448 150.138 23.36V29.5444H148.308V28.2724H148.157C147.852 28.7287 147.423 29.1006 146.915 29.3503C146.407 29.6 145.837 29.7184 145.264 29.6935C144.859 29.7331 144.451 29.6925 144.064 29.5745C143.677 29.4565 143.321 29.2637 143.019 29.0085C142.716 28.7533 142.474 28.4413 142.307 28.0927C142.141 27.7442 142.054 27.3667 142.053 26.9847ZM148.245 26.2112V25.4545L145.893 25.5958C144.566 25.6793 143.964 26.1033 143.964 26.9012C143.964 27.7159 144.716 28.1899 145.751 28.1899C146.054 28.2187 146.36 28.19 146.651 28.1054C146.942 28.0208 147.212 27.882 147.444 27.6974C147.677 27.5128 147.868 27.2861 148.005 27.0308C148.143 26.7755 148.224 26.4968 148.245 26.2112Z" fill="black"/>
  <path d="M152.637 25.0148C152.637 22.1547 154.202 20.3428 156.635 20.3428C157.237 20.3168 157.835 20.4523 158.358 20.7335C158.881 21.0147 159.308 21.43 159.59 21.9308H159.732V16.9596H161.633V29.5443H159.811V28.1143H159.661C159.358 28.6118 158.916 29.0219 158.382 29.3002C157.849 29.5786 157.245 29.7146 156.635 29.6935C154.185 29.6936 152.637 27.8817 152.637 25.0148ZM154.601 25.0148C154.601 26.9346 155.564 28.0898 157.175 28.0898C158.777 28.0898 159.767 26.9179 159.767 25.0226C159.767 23.1362 158.766 21.9476 157.175 21.9476C155.574 21.9476 154.601 23.1106 154.601 25.0148Z" fill="black"/>
  <path d="M169.499 25.0148C169.438 24.42 169.51 23.8199 169.711 23.2529C169.912 22.6859 170.237 22.1646 170.664 21.7224C171.092 21.2802 171.613 20.9269 172.195 20.6851C172.777 20.4434 173.406 20.3185 174.041 20.3185C174.677 20.3185 175.306 20.4434 175.888 20.6851C176.47 20.9269 176.991 21.2802 177.419 21.7224C177.846 22.1646 178.171 22.6859 178.372 23.2529C178.573 23.8199 178.645 24.42 178.584 25.0148C178.646 25.6103 178.575 26.2113 178.374 26.7792C178.174 27.3471 177.85 27.8693 177.422 28.3124C176.994 28.7554 176.472 29.1095 175.89 29.3518C175.308 29.5941 174.678 29.7192 174.041 29.7192C173.405 29.7192 172.775 29.5941 172.193 29.3518C171.611 29.1095 171.089 28.7554 170.661 28.3124C170.233 27.8693 169.909 27.3471 169.709 26.7792C169.508 26.2113 169.437 25.6103 169.499 25.0148ZM176.629 25.0148C176.629 23.0528 175.691 21.9055 174.045 21.9055C172.392 21.9055 171.462 23.0528 171.462 25.0149C171.462 26.9926 172.392 28.1311 174.045 28.1311C175.691 28.1311 176.629 26.9847 176.629 25.0148Z" fill="black"/>
  <path d="M181.135 20.4931H182.965V21.931H183.107C183.348 21.4145 183.755 20.9816 184.27 20.6925C184.785 20.4035 185.384 20.2727 185.982 20.3184C186.451 20.2852 186.921 20.3517 187.359 20.5127C187.797 20.6737 188.19 20.9251 188.51 21.2484C188.831 21.5717 189.069 21.9586 189.209 22.3804C189.348 22.8021 189.385 23.248 189.316 23.6849V29.5443H187.415V24.1335C187.415 22.6789 186.742 21.9555 185.336 21.9555C185.018 21.9416 184.7 21.9925 184.405 22.1047C184.11 22.2169 183.844 22.3878 183.625 22.6057C183.407 22.8236 183.241 23.0832 183.139 23.3669C183.038 23.6506 183.002 23.9516 183.036 24.2493V29.5444H181.135V20.4931Z" fill="black"/>
  <path d="M200.059 18.2395V20.5342H202.146V22.0389H200.059V26.6931C200.059 27.6413 200.474 28.0564 201.421 28.0564C201.663 28.0557 201.905 28.0419 202.146 28.0152V29.5031C201.804 29.5605 201.459 29.591 201.112 29.5944C198.997 29.5944 198.156 28.8956 198.156 27.1505V22.0388H196.626V20.5342H198.156V18.2395H200.059Z" fill="black"/>
  <path d="M204.742 16.9596H206.627V21.9476H206.777C207.03 21.4263 207.448 20.9909 207.973 20.7008C208.499 20.4106 209.107 20.2798 209.715 20.3261C210.181 20.3023 210.647 20.3754 211.08 20.5404C211.512 20.7053 211.901 20.9579 212.218 21.2802C212.535 21.6025 212.772 21.9865 212.913 22.4049C213.054 22.8232 213.094 23.2656 213.032 23.7005V29.5443H211.129V24.1412C211.129 22.6954 210.412 21.9632 209.069 21.9632C208.742 21.9381 208.414 21.9803 208.106 22.0869C207.799 22.1936 207.52 22.3621 207.289 22.5806C207.057 22.7992 206.88 23.0626 206.769 23.3523C206.657 23.642 206.615 23.9511 206.644 24.258V29.5443H204.743L204.742 16.9596Z" fill="black"/>
  <path d="M224.118 27.1005C223.859 27.9278 223.3 28.6433 222.537 29.122C221.774 29.6007 220.856 29.8121 219.943 29.7191C219.309 29.7349 218.678 29.6207 218.095 29.3844C217.512 29.1482 216.991 28.7956 216.567 28.351C216.144 27.9065 215.829 27.3808 215.643 26.8103C215.458 26.2398 215.407 25.6382 215.493 25.0472C215.409 24.4545 215.461 23.8516 215.646 23.2794C215.831 22.7071 216.145 22.179 216.566 21.7306C216.987 21.2822 217.506 20.924 218.087 20.6804C218.668 20.4367 219.299 20.3133 219.935 20.3184C222.615 20.3184 224.233 22.039 224.233 24.8813V25.5046H217.43V25.6047C217.4 25.9369 217.445 26.2712 217.561 26.5863C217.676 26.9014 217.861 27.1903 218.103 27.4344C218.344 27.6786 218.637 27.8726 218.963 28.004C219.289 28.1355 219.641 28.2015 219.996 28.1978C220.45 28.2491 220.911 28.1721 221.319 27.9767C221.727 27.7813 222.064 27.4763 222.287 27.1005L224.118 27.1005ZM217.43 24.1835H222.296C222.32 23.8797 222.276 23.5746 222.167 23.2877C222.058 23.0008 221.886 22.7386 221.663 22.5177C221.439 22.2969 221.169 22.1224 220.87 22.0055C220.571 21.8886 220.249 21.8317 219.925 21.8387C219.596 21.8348 219.269 21.8929 218.965 22.0093C218.66 22.1258 218.384 22.2984 218.151 22.5169C217.919 22.7354 217.735 22.9955 217.611 23.2817C217.487 23.5679 217.426 23.8746 217.43 24.1835H217.43Z" fill="black"/>
  <path d="M48.5473 49.6776L27.443 60.7927L27.377 60.8228C26.6283 61.2348 25.7476 61.466 24.8119 61.466C22.4669 61.466 20.4963 60.0088 19.9238 58.039C19.9165 58.0323 19.9128 58.029 19.9128 58.029L38.6722 39.859L48.5473 49.6776Z" fill="#EA4335"/>
  <path d="M60.2827 40.8237C60.2827 42.5824 59.2039 44.12 57.6075 44.9039L48.5471 49.6776L38.2427 40.271L48.5141 31.9297L57.6186 36.7536L57.6406 36.7636C59.2149 37.5475 60.2827 39.0751 60.2827 40.8237Z" fill="#FBBC04"/>
  <path d="M39.3106 40.3212L19.9127 58.0289C19.8026 57.647 19.7476 57.255 19.7476 56.843V24.734C19.7476 24.322 19.8026 23.92 19.9127 23.5381L39.3106 40.3212Z" fill="#4285F4"/>
  <path d="M19.9128 23.5382C20.4963 21.5584 22.4669 20.1012 24.8119 20.1012C25.7696 20.1012 26.6614 20.3524 27.432 20.7645L48.5143 31.9298L38.8043 40.7836L19.9128 23.5382Z" fill="#34A853"/>
</svg>